<svg width="40" height="40" viewBox="0 0 40 40" fill="none" xmlns="http://www.w3.org/2000/svg">
<g clip-path="url(#clip0_4_214)">
<path d="M35.556 8.88892H4.44488C3.85551 8.88892 3.29028 9.12304 2.87353 9.53979C2.45678 9.95654 2.22266 10.5218 2.22266 11.1111V28.8889C2.22266 29.4783 2.45678 30.0435 2.87353 30.4603C3.29028 30.877 3.85551 31.1111 4.44488 31.1111H35.556C36.1454 31.1111 36.7106 30.877 37.1273 30.4603C37.5441 30.0435 37.7782 29.4783 37.7782 28.8889V11.1111C37.7782 10.5218 37.5441 9.95654 37.1273 9.53979C36.7106 9.12304 36.1454 8.88892 35.556 8.88892ZM35.556 15.5556C34.4186 15.4634 33.3531 14.9624 32.5565 14.1454C31.7599 13.3283 31.2861 12.2505 31.2227 11.1111H35.556V15.5556ZM35.556 17.3556V22.7222C33.9561 22.8183 32.4476 23.5001 31.3184 24.6375C30.1891 25.775 29.5183 27.2884 29.4338 28.8889H10.5449C10.4636 27.29 9.79698 25.7768 8.67211 24.6376C7.54723 23.4984 6.04264 22.8127 4.44488 22.7111V17.3334C6.05386 17.2361 7.56983 16.5464 8.70036 15.3974C9.83089 14.2484 10.4959 12.7215 10.5671 11.1111H29.456C29.5267 12.7179 30.1886 14.2419 31.3145 15.3904C32.4404 16.5388 33.951 17.2308 35.556 17.3334V17.3556ZM8.77821 11.1111C8.71482 12.2505 8.24101 13.3283 7.44439 14.1454C6.64778 14.9624 5.58226 15.4634 4.44488 15.5556V11.1111H8.77821ZM4.44488 24.5111C5.57155 24.6015 6.62845 25.0929 7.4236 25.8962C8.21874 26.6995 8.69938 27.7614 8.77821 28.8889H4.44488V24.5111ZM31.2227 28.8889C31.3015 27.7614 31.7821 26.6995 32.5773 25.8962C33.3724 25.0929 34.4293 24.6015 35.556 24.5111V28.8889H31.2227Z" fill="#16BAC4"/>
<path d="M20 12.0557C16.1444 12.0557 13 15.6223 13 20.0001C13 24.3779 16.1444 27.9446 20 27.9446C23.8556 27.9446 27 24.3779 27 20.0001C27 15.6223 23.8556 12.0557 20 12.0557ZM20 26.1557C17.1222 26.1557 14.7778 23.389 14.7778 19.989C14.7778 16.589 17.1222 13.8223 20 13.8223C22.8778 13.8223 25.2222 16.589 25.2222 19.989C25.2222 23.389 22.8778 26.1668 20 26.1668V26.1557Z" fill="#16BAC4"/>
</g>
<defs>
<clipPath id="clip0_4_214">
<rect width="40" height="40" fill="white"/>
</clipPath>
</defs>
</svg>
