<svg width="18" height="18" viewBox="0 0 18 18" fill="none" xmlns="http://www.w3.org/2000/svg">
<path fill-rule="evenodd" clip-rule="evenodd" d="M9 0C6.5556 0 6.2496 0.0107999 5.2893 0.0539999C4.3317 0.0980999 3.6774 0.2502 3.105 0.4725C2.50424 0.69826 1.95998 1.0524 1.5102 1.5102C1.05242 1.96 0.698286 2.50425 0.4725 3.105C0.2502 3.6774 0.0980999 4.3317 0.0539999 5.2893C0.00989995 6.2496 0 6.5556 0 9C0 11.4444 0.00989995 11.7504 0.0539999 12.7107C0.0980999 13.6683 0.2502 14.3226 0.4725 14.895C0.698312 15.4957 1.05244 16.04 1.5102 16.4898C1.96001 16.9476 2.50426 17.3017 3.105 17.5275C3.6774 17.7498 4.3317 17.9019 5.2893 17.946C6.2496 17.9892 6.5556 18 9 18C11.4444 18 11.7504 17.9892 12.7107 17.946C13.6683 17.9019 14.3226 17.7498 14.895 17.5275C15.4957 17.3017 16.04 16.9476 16.4898 16.4898C16.9476 16.04 17.3017 15.4957 17.5275 14.895C17.7498 14.3226 17.9019 13.6683 17.946 12.7107C17.9892 11.7504 18 11.4444 18 9C18 6.5556 17.9892 6.2496 17.946 5.2893C17.9019 4.3317 17.7498 3.6774 17.5275 3.105C17.3017 2.50425 16.9476 1.96 16.4898 1.5102C16.04 1.0524 15.4958 0.69826 14.895 0.4725C14.3226 0.2502 13.6683 0.0980999 12.7107 0.0539999C11.7504 0.0107999 11.4444 0 9 0ZM9 1.6218C11.403 1.6218 11.6874 1.6308 12.636 1.674C13.5144 1.7145 13.9905 1.8603 14.3082 1.9836C14.7276 2.1474 15.0282 2.3427 15.3432 2.6568C15.6582 2.9718 15.8526 3.2724 16.0164 3.6918C16.1388 4.0095 16.2864 4.4856 16.326 5.3631C16.3692 6.3126 16.3782 6.5961 16.3782 9C16.3782 11.403 16.3692 11.6874 16.326 12.636C16.2855 13.5144 16.1388 13.9905 16.0164 14.3082C15.8721 14.6991 15.6421 15.0528 15.3432 15.3432C15.0282 15.6582 14.7276 15.8526 14.3082 16.0164C13.9905 16.1388 13.5144 16.2864 12.6369 16.326C11.6883 16.3692 11.4039 16.3782 9 16.3782C6.597 16.3782 6.3117 16.3692 5.364 16.326C4.4856 16.2855 4.0095 16.1388 3.6918 16.0164C3.30083 15.8722 2.94716 15.6421 2.6568 15.3432C2.35787 15.0528 2.12783 14.6992 1.9836 14.3082C1.8603 13.9905 1.7136 13.5144 1.674 12.6369C1.6308 11.6874 1.6218 11.4039 1.6218 9C1.6218 6.597 1.6308 6.3126 1.674 5.364C1.7145 4.4856 1.8603 4.0095 1.9836 3.6918C2.1474 3.2724 2.3427 2.9718 2.6568 2.6568C2.9718 2.3418 3.2724 2.1474 3.6918 1.9836C4.0095 1.8603 4.4856 1.7136 5.3631 1.674C6.3126 1.6308 6.5961 1.6218 9 1.6218ZM9 11.9997C8.20443 11.9997 7.44144 11.6837 6.87889 11.1211C6.31634 10.5586 6.0003 9.79557 6.0003 9C6.0003 8.20443 6.31634 7.44144 6.87889 6.87889C7.44144 6.31634 8.20443 6.0003 9 6.0003C9.79557 6.0003 10.5586 6.31634 11.1211 6.87889C11.6837 7.44144 11.9997 8.20443 11.9997 9C11.9997 9.79557 11.6837 10.5586 11.1211 11.1211C10.5586 11.6837 9.79557 11.9997 9 11.9997ZM9 4.3785C8.3931 4.3785 7.79213 4.49804 7.23143 4.73029C6.67072 4.96254 6.16125 5.30296 5.73211 5.73211C5.30296 6.16125 4.96254 6.67072 4.73029 7.23143C4.49804 7.79213 4.3785 8.3931 4.3785 9C4.3785 9.6069 4.49804 10.2079 4.73029 10.7686C4.96254 11.3293 5.30296 11.8387 5.73211 12.2679C6.16125 12.697 6.67072 13.0375 7.23143 13.2697C7.79213 13.502 8.3931 13.6215 9 13.6215C10.2257 13.6215 11.4012 13.1346 12.2679 12.2679C13.1346 11.4012 13.6215 10.2257 13.6215 9C13.6215 7.7743 13.1346 6.59881 12.2679 5.73211C11.4012 4.86541 10.2257 4.3785 9 4.3785ZM14.8842 4.1958C14.8842 4.33763 14.8563 4.47807 14.802 4.6091C14.7477 4.74013 14.6682 4.85919 14.5679 4.95948C14.4676 5.05976 14.3485 5.13931 14.2175 5.19359C14.0865 5.24787 13.946 5.2758 13.8042 5.2758C13.6624 5.2758 13.5219 5.24787 13.3909 5.19359C13.2599 5.13931 13.1408 5.05976 13.0405 4.95948C12.9402 4.85919 12.8607 4.74013 12.8064 4.6091C12.7521 4.47807 12.7242 4.33763 12.7242 4.1958C12.7242 3.90937 12.838 3.63466 13.0405 3.43212C13.2431 3.22959 13.5178 3.1158 13.8042 3.1158C14.0906 3.1158 14.3653 3.22959 14.5679 3.43212C14.7704 3.63466 14.8842 3.90937 14.8842 4.1958Z" fill="#070707"/>
</svg>
