<svg width="20" height="20" viewBox="0 0 20 20" fill="none" xmlns="http://www.w3.org/2000/svg">
<path fill-rule="evenodd" clip-rule="evenodd" d="M0.833496 10.0052C0.833496 4.94565 4.94788 0.833252 10.0002 0.833252C15.0524 0.833252 19.1668 4.94565 19.1668 10.0052C19.1668 15.0542 15.0524 19.1666 10.0002 19.1666C4.94788 19.1666 0.833496 15.0542 0.833496 10.0052ZM13.3629 10.933C13.4602 10.8357 13.5841 10.6854 13.6106 10.65C13.7522 10.4643 13.823 10.2343 13.823 10.0053C13.823 9.7479 13.7434 9.50912 13.5929 9.31456C13.5806 9.30223 13.5565 9.27596 13.525 9.24172C13.4662 9.17766 13.3817 9.0857 13.301 9.00502C12.5754 8.22676 10.6819 6.95324 9.69092 6.56411C9.5405 6.50309 9.16003 6.36955 8.95652 6.3607C8.76187 6.3607 8.57606 6.40492 8.39909 6.49336C8.17789 6.61718 8.00093 6.81174 7.9036 7.04168C7.84166 7.20087 7.74433 7.67844 7.74433 7.68728C7.647 8.20907 7.59391 9.05808 7.59391 9.99553C7.59391 10.8896 7.647 11.7024 7.72663 12.233C7.72882 12.2352 7.73644 12.2732 7.74826 12.3321C7.78421 12.5114 7.85909 12.8848 7.93899 13.0378C8.13365 13.4093 8.51412 13.6392 8.92113 13.6392H8.95652C9.22197 13.6304 9.7794 13.4004 9.7794 13.3916C10.7173 13.0024 12.5666 11.7908 13.3098 10.986L13.3629 10.933Z" fill="#8A909A"/>
</svg>
