<svg width="19" height="16" viewBox="0 0 19 16" fill="none" xmlns="http://www.w3.org/2000/svg">
<path d="M5.89291 15.4284C7.33135 15.4375 8.75726 15.1572 10.0879 14.6035C11.4186 14.0499 12.6276 13.234 13.6448 12.2031C14.6619 11.1723 15.467 9.94705 16.0133 8.59846C16.5596 7.24986 16.8362 5.80476 16.8272 4.34697V3.83778C17.5728 3.28413 18.2182 2.60378 18.7347 1.8269C18.0326 2.13811 17.2897 2.34451 16.5291 2.43966C17.3355 1.95272 17.9405 1.18624 18.2323 0.282069C17.4808 0.738996 16.6567 1.06021 15.7968 1.23141C15.2176 0.606024 14.4513 0.191498 13.6163 0.0519715C12.7813 -0.0875554 11.9242 0.0556943 11.1776 0.459556C10.431 0.863418 9.83656 1.50538 9.48623 2.28611C9.13591 3.06683 9.04923 3.94281 9.23961 4.77849C7.7119 4.70249 6.21712 4.30125 4.85259 3.60088C3.48806 2.90051 2.28439 1.91673 1.31994 0.713587C0.833628 1.56901 0.686224 2.57975 0.907576 3.54117C1.12893 4.50259 1.7025 5.34285 2.51215 5.8918C1.91487 5.86846 1.3314 5.70289 0.808998 5.4085V5.45166C0.80369 6.34562 1.10085 7.21442 1.65096 7.91327C2.20106 8.61211 2.97087 9.09878 3.8321 9.29217C3.27656 9.44359 2.69464 9.46719 2.12894 9.36121C2.37827 10.1236 2.85422 10.7892 3.4915 11.2666C4.12879 11.7441 4.89622 12.01 5.68853 12.028C4.33386 13.1331 2.65019 13.7414 0.911188 13.7541C0.606283 13.7451 0.302095 13.7192 0 13.6764C1.76017 14.8129 3.80587 15.4121 5.89291 15.4025" fill="#070707"/>
</svg>
